<?xml version="1.0" encoding="utf-8"?>
<!-- Generator: Adobe Illustrator 27.0.0, SVG Export Plug-In . SVG Version: 6.00 Build 0)  -->
<!DOCTYPE svg PUBLIC "-//W3C//DTD SVG 1.1//EN" "http://www.w3.org/Graphics/SVG/1.1/DTD/svg11.dtd" [
	<!ENTITY ns_extend "http://ns.adobe.com/Extensibility/1.0/">
	<!ENTITY ns_ai "http://ns.adobe.com/AdobeIllustrator/10.0/">
	<!ENTITY ns_graphs "http://ns.adobe.com/Graphs/1.0/">
	<!ENTITY ns_vars "http://ns.adobe.com/Variables/1.0/">
	<!ENTITY ns_imrep "http://ns.adobe.com/ImageReplacement/1.0/">
	<!ENTITY ns_sfw "http://ns.adobe.com/SaveForWeb/1.0/">
	<!ENTITY ns_custom "http://ns.adobe.com/GenericCustomNamespace/1.0/">
	<!ENTITY ns_adobe_xpath "http://ns.adobe.com/XPath/1.0/">
]>
<svg version="1.1" id="Layer_1" xmlns:x="&ns_extend;" xmlns:i="&ns_ai;" xmlns:graph="&ns_graphs;"
	 xmlns="http://www.w3.org/2000/svg" xmlns:xlink="http://www.w3.org/1999/xlink" x="0px" y="0px" viewBox="0 0 182 44"
	 style="enable-background:new 0 0 182 44;" xml:space="preserve">
<style type="text/css">
	.st0{fill:#FFFFFF;}
</style>
<metadata><?xpacket begin="﻿" id="W5M0MpCehiHzreSzNTczkc9d"?>
<x:xmpmeta xmlns:x="adobe:ns:meta/" x:xmptk="Adobe XMP Core 7.2-c000 79.1b65a79, 2022/06/13-17:46:14        ">
   <rdf:RDF xmlns:rdf="http://www.w3.org/1999/02/22-rdf-syntax-ns#">
      <rdf:Description rdf:about=""
            xmlns:xmp="http://ns.adobe.com/xap/1.0/"
            xmlns:xmpGImg="http://ns.adobe.com/xap/1.0/g/img/"
            xmlns:xmpTPg="http://ns.adobe.com/xap/1.0/t/pg/"
            xmlns:stDim="http://ns.adobe.com/xap/1.0/sType/Dimensions#"
            xmlns:xmpG="http://ns.adobe.com/xap/1.0/g/"
            xmlns:dc="http://purl.org/dc/elements/1.1/"
            xmlns:xmpMM="http://ns.adobe.com/xap/1.0/mm/"
            xmlns:stRef="http://ns.adobe.com/xap/1.0/sType/ResourceRef#"
            xmlns:stEvt="http://ns.adobe.com/xap/1.0/sType/ResourceEvent#">
         <xmp:CreatorTool>Adobe Illustrator 27.0 (Windows)</xmp:CreatorTool>
         <xmp:CreateDate>2024-02-22T03:54:35+02:00</xmp:CreateDate>
         <xmp:MetadataDate>2024-02-22T03:54:35+02:00</xmp:MetadataDate>
         <xmp:ModifyDate>2024-02-22T03:54:35+02:00</xmp:ModifyDate>
         <xmp:Thumbnails>
            <rdf:Alt>
               <rdf:li rdf:parseType="Resource">
                  <xmpGImg:width>256</xmpGImg:width>
                  <xmpGImg:height>68</xmpGImg:height>
                  <xmpGImg:format>JPEG</xmpGImg:format>
                  <xmpGImg:image>/9j/4AAQSkZJRgABAgEASABIAAD/7QAsUGhvdG9zaG9wIDMuMAA4QklNA+0AAAAAABAASAAAAAEA&#xA;AQBIAAAAAQAB/+4ADkFkb2JlAGTAAAAAAf/bAIQABgQEBAUEBgUFBgkGBQYJCwgGBggLDAoKCwoK&#xA;DBAMDAwMDAwQDA4PEA8ODBMTFBQTExwbGxscHx8fHx8fHx8fHwEHBwcNDA0YEBAYGhURFRofHx8f&#xA;Hx8fHx8fHx8fHx8fHx8fHx8fHx8fHx8fHx8fHx8fHx8fHx8fHx8fHx8fHx8f/8AAEQgARAEAAwER&#xA;AAIRAQMRAf/EAaIAAAAHAQEBAQEAAAAAAAAAAAQFAwIGAQAHCAkKCwEAAgIDAQEBAQEAAAAAAAAA&#xA;AQACAwQFBgcICQoLEAACAQMDAgQCBgcDBAIGAnMBAgMRBAAFIRIxQVEGE2EicYEUMpGhBxWxQiPB&#xA;UtHhMxZi8CRygvElQzRTkqKyY3PCNUQnk6OzNhdUZHTD0uIIJoMJChgZhJRFRqS0VtNVKBry4/PE&#xA;1OT0ZXWFlaW1xdXl9WZ2hpamtsbW5vY3R1dnd4eXp7fH1+f3OEhYaHiImKi4yNjo+Ck5SVlpeYmZ&#xA;qbnJ2en5KjpKWmp6ipqqusra6voRAAICAQIDBQUEBQYECAMDbQEAAhEDBCESMUEFURNhIgZxgZEy&#xA;obHwFMHR4SNCFVJicvEzJDRDghaSUyWiY7LCB3PSNeJEgxdUkwgJChgZJjZFGidkdFU38qOzwygp&#xA;0+PzhJSktMTU5PRldYWVpbXF1eX1RlZmdoaWprbG1ub2R1dnd4eXp7fH1+f3OEhYaHiImKi4yNjo&#xA;+DlJWWl5iZmpucnZ6fkqOkpaanqKmqq6ytrq+v/aAAwDAQACEQMRAD8A9U4q7FXYq7FXYq7FXYq7&#xA;FXYq7FXYq7FXYq7FXYq7FXYq7FXYq7FXYq7FXYq7FXYq7FXYq7FXYq7FXYq7FXYq7FXYq7FXYq7F&#xA;XYq7FXYq7FXYq7FXYq7FXYq7FXYq7FXYq7FXYq7FXYq7FXYq7FXYq7FXYq7FXYq7FXYq7FXYq7FX&#xA;Yq7FXYq7FXYq7FXYq7FXYq7FXYq7FXYq7FXYq7FXYq7FXYq7FXYq7FXYq7FXYq7FXYq7FXYq7FXY&#xA;q7FXYq7FXYq7FXYq7FXYq7FXYq7FXYq7FXYq7FXYq7FXYq7FXYq7FXYq7FXYq7FXYq7FXYq7FXYq&#xA;7FXYq7FXYq7FXYq7FXYq7FXYq7FXYq7FXYq7FXYq7FXYq7FXYq7FXYq7FXYq7FXYq7FXYq7FXYq7&#xA;FXYq7FXYq7FXYq7FXYq7FXYq7FXYq7FXYq7FXYq7FXYq7FXYq7FXYq7FXYq7FXYq7FXYq7FXYq7F&#xA;XYq7FXYq7FXYq7FXYq7FXYq7FXYq7FXYq7FXYq7FXYq7FXYq7FXYq7FXYq7FXYq7FXYq7FXYq7FX&#xA;Yq7FXYq7FXYq7FXYq7FXYq7FXYq7FXYq7FXYq7FXYq7FXYq7FXYq7FXYq7FXYq7FXYq7FXYq7FXY&#xA;q7FXYq7FXYq7FXYq7FXYq7FXYq7FXYq7FXYq7FXYq7FXYq7FXYq7FXYq7FXYq7FXYq7FXYq7FXYq&#xA;7FXYq7FXYq7FXYq7FX//2Q==</xmpGImg:image>
               </rdf:li>
            </rdf:Alt>
         </xmp:Thumbnails>
         <xmpTPg:MaxPageSize rdf:parseType="Resource">
            <stDim:w>6.420556</stDim:w>
            <stDim:h>1.552222</stDim:h>
            <stDim:unit>Centimeters</stDim:unit>
         </xmpTPg:MaxPageSize>
         <xmpTPg:NPages>1</xmpTPg:NPages>
         <xmpTPg:HasVisibleTransparency>False</xmpTPg:HasVisibleTransparency>
         <xmpTPg:HasVisibleOverprint>False</xmpTPg:HasVisibleOverprint>
         <xmpTPg:SwatchGroups>
            <rdf:Seq>
               <rdf:li rdf:parseType="Resource">
                  <xmpG:groupName>Default Swatch Group</xmpG:groupName>
                  <xmpG:groupType>0</xmpG:groupType>
               </rdf:li>
            </rdf:Seq>
         </xmpTPg:SwatchGroups>
         <dc:format>image/svg+xml</dc:format>
         <xmpMM:DerivedFrom rdf:parseType="Resource">
            <stRef:instanceID>xmp.iid:3deb8b41-764a-5f43-96aa-fa8554fe6b58</stRef:instanceID>
            <stRef:documentID>xmp.did:3deb8b41-764a-5f43-96aa-fa8554fe6b58</stRef:documentID>
            <stRef:originalDocumentID>xmp.did:3deb8b41-764a-5f43-96aa-fa8554fe6b58</stRef:originalDocumentID>
         </xmpMM:DerivedFrom>
         <xmpMM:DocumentID>xmp.did:5ac2e42d-fc44-f645-a078-5222ddcad805</xmpMM:DocumentID>
         <xmpMM:InstanceID>xmp.iid:5ac2e42d-fc44-f645-a078-5222ddcad805</xmpMM:InstanceID>
         <xmpMM:OriginalDocumentID>xmp.did:3deb8b41-764a-5f43-96aa-fa8554fe6b58</xmpMM:OriginalDocumentID>
         <xmpMM:History>
            <rdf:Seq>
               <rdf:li rdf:parseType="Resource">
                  <stEvt:action>saved</stEvt:action>
                  <stEvt:instanceID>xmp.iid:3deb8b41-764a-5f43-96aa-fa8554fe6b58</stEvt:instanceID>
                  <stEvt:when>2024-02-22T03:33:24+02:00</stEvt:when>
                  <stEvt:softwareAgent>Adobe Illustrator 27.0 (Windows)</stEvt:softwareAgent>
                  <stEvt:changed>/</stEvt:changed>
               </rdf:li>
               <rdf:li rdf:parseType="Resource">
                  <stEvt:action>saved</stEvt:action>
                  <stEvt:instanceID>xmp.iid:5ac2e42d-fc44-f645-a078-5222ddcad805</stEvt:instanceID>
                  <stEvt:when>2024-02-22T03:54:35+02:00</stEvt:when>
                  <stEvt:softwareAgent>Adobe Illustrator 27.0 (Windows)</stEvt:softwareAgent>
                  <stEvt:changed>/</stEvt:changed>
               </rdf:li>
            </rdf:Seq>
         </xmpMM:History>
      </rdf:Description>
   </rdf:RDF>
</x:xmpmeta>
                                                                                                    
                                                                                                    
                                                                                                    
                                                                                                    
                                                                                                    
                                                                                                    
                                                                                                    
                                                                                                    
                                                                                                    
                                                                                                    
                                                                                                    
                                                                                                    
                                                                                                    
                                                                                                    
                                                                                                    
                                                                                                    
                                                                                                    
                                                                                                    
                                                                                                    
                                                                                                    
                           
<?xpacket end="w"?>
	</metadata>
<g>
	<path class="st0" d="M16.19,42.56c0.08-0.28,0.15-0.51,0.22-0.73c0.74-2.36,1.49-4.72,2.21-7.09c0.09-0.28,0.23-0.37,0.51-0.37
		c2.27-0.01,4.54-0.05,6.81-0.05c1.1,0,2.19,0.05,3.29,0.05c0.32,0,0.48,0.11,0.58,0.44c0.75,2.45,1.52,4.89,2.28,7.34
		c0.04,0.12,0.06,0.25,0.1,0.41c-5.33-0.24-10.63-0.24-15.99,0H16.19z"/>
	<path class="st0" d="M31.05,34.47c0.14,0,0.24,0,0.35,0c2.15,0.13,4.3,0.28,6.45,0.37c0.6,0.02,0.94,0.26,1.27,0.73
		c1.86,2.61,3.74,5.2,5.62,7.79c0.07,0.09,0.13,0.18,0.23,0.33c-0.54-0.06-1.02-0.12-1.5-0.17c-1.13-0.13-2.27-0.27-3.4-0.38
		c-1.16-0.12-2.33-0.22-3.5-0.32c-0.75-0.06-1.5-0.1-2.25-0.14c-0.23-0.01-0.38-0.07-0.47-0.31c-0.9-2.54-1.81-5.08-2.72-7.62
		C31.1,34.68,31.09,34.61,31.05,34.47z"/>
	<path class="st0" d="M17.35,34.47c-0.04,0.15-0.06,0.24-0.09,0.32c-0.89,2.49-1.79,4.97-2.66,7.46c-0.11,0.32-0.28,0.42-0.62,0.44
		c-1.44,0.09-2.89,0.21-4.33,0.33c-1.04,0.09-2.09,0.19-3.13,0.3c-0.88,0.09-1.76,0.21-2.63,0.32c-0.12,0.01-0.24,0.02-0.42,0.03
		c0.07-0.11,0.1-0.18,0.15-0.25c2-2.76,3.99-5.52,5.99-8.27c0.09-0.13,0.29-0.25,0.44-0.26c2.3-0.15,4.61-0.29,6.91-0.42
		C17.08,34.47,17.2,34.47,17.35,34.47z"/>
	<path class="st0" d="M29.05,32.49h-9.72c0.05-0.18,0.1-0.34,0.14-0.49c0.61-1.96,1.23-3.92,1.83-5.89c0.08-0.27,0.2-0.35,0.48-0.35
		c1.62,0.01,3.24,0.01,4.86,0c0.26,0,0.36,0.08,0.43,0.33c0.62,2.04,1.26,4.07,1.89,6.11c0.03,0.09,0.04,0.18,0.07,0.29H29.05z"/>
	<path class="st0" d="M20.44,25.82c-0.04,0.14-0.06,0.23-0.09,0.31c-0.73,2.05-1.47,4.11-2.2,6.16c-0.08,0.23-0.21,0.29-0.44,0.31
		c-1.61,0.08-3.21,0.18-4.82,0.27c-0.55,0.03-1.1,0.05-1.69,0.08c0.06-0.11,0.09-0.17,0.14-0.23c1.57-2.18,3.15-4.35,4.72-6.53
		c0.13-0.18,0.27-0.25,0.49-0.26c1.17-0.03,2.34-0.07,3.51-0.11C20.17,25.83,20.28,25.83,20.44,25.82L20.44,25.82z"/>
	<path class="st0" d="M37.18,32.95c-0.56-0.03-1.07-0.05-1.58-0.08c-0.85-0.05-1.69-0.11-2.54-0.16c-0.81-0.05-1.62-0.08-2.43-0.12
		c-0.19,0-0.32-0.07-0.39-0.27c-0.75-2.1-1.5-4.2-2.25-6.3c-0.02-0.05-0.02-0.11-0.04-0.19c0.39,0,0.76,0,1.13,0
		c0.93,0.03,1.87,0.06,2.8,0.11c0.13,0,0.3,0.08,0.38,0.18c1.62,2.22,3.22,4.44,4.83,6.67c0.02,0.03,0.04,0.07,0.08,0.16H37.18z"/>
	<g>
		<path class="st0" d="M27.38,19.34c0,0-0.07,0-0.08,0c-0.87-0.5-1.82-0.48-2.78-0.46c-0.26,0-0.39,0.08-0.37,0.37
			c0.02,0.29,0,0.59,0,0.89c0,0.36,0,0.37,0.36,0.37c1.12,0,2.23,0,3.35,0c0.27,0,0.44,0.09,0.59,0.31
			c0.36,0.53,0.74,1.04,1.07,1.61c-0.27-0.12-0.55-0.23-0.81-0.37c-0.45-0.24-0.93-0.32-1.43-0.31c-0.92,0.01-1.83,0-2.75,0
			c-0.35,0-0.38,0.04-0.38,0.37c0,0.27,0.01,0.53,0,0.8c-0.01,0.24,0.07,0.34,0.32,0.34c1.56,0.03,3.13,0.08,4.69,0.11
			c1.16,0.02,1.16,0.01,1.82,0.97c0.06,0.08,0.11,0.17,0.2,0.31c-4.66-0.19-9.26-0.16-13.87-0.02c-0.02-0.03-0.04-0.05-0.05-0.08
			c2.27-3.15,4.55-6.3,6.82-9.44c0.02,0,0.05,0.02,0.07,0.03c0,0.44,0,0.89,0,1.33c0,0.39,0,0.78,0,1.17c0,0.21,0.09,0.29,0.29,0.29
			c0.54,0,1.09,0,1.63,0c0.13,0,0.3,0.05,0.38,0.14c0.32,0.41,0.62,0.84,0.93,1.28V19.34z"/>
		<path class="st0" d="M20.06,14.27c-0.2,0.27-0.37,0.5-0.55,0.74c-0.13,0.17-0.23,0.03-0.33-0.04c-1.03-0.8-2.05-1.61-3.08-2.42
			c-1.99-1.56-3.99-3.13-5.98-4.69c-0.08-0.07-0.16-0.14-0.23-0.22c0.02-0.03,0.05-0.06,0.07-0.09c3.36,2.23,6.72,4.47,10.11,6.72
			L20.06,14.27z"/>
		<path class="st0" d="M40.99,12.61c-3.77,1.38-7.54,2.76-11.34,4.16c-0.11-0.31-0.21-0.59-0.3-0.87c-0.06-0.21,0.12-0.21,0.24-0.24
			c0.89-0.25,1.78-0.5,2.67-0.75c2.79-0.78,5.57-1.55,8.36-2.33c0.12-0.03,0.24-0.05,0.36-0.07c0,0.04,0.01,0.07,0.02,0.11
			L40.99,12.61z"/>
		<path class="st0" d="M41.82,18.04c-0.07,0.01-0.15,0.03-0.22,0.03c-0.9,0.04-1.79,0.08-2.69,0.11c-2.41,0.08-4.82,0.17-7.23,0.25
			c-0.53,0.02-1.07,0.03-1.6,0.06c-0.27,0.02-0.36-0.08-0.34-0.34c0.02-0.16,0.01-0.32,0-0.49c-0.02-0.21,0.08-0.25,0.27-0.24
			c1.75,0.08,3.5,0.15,5.26,0.22c2.11,0.09,4.23,0.18,6.34,0.28c0.07,0,0.14,0.03,0.2,0.04C41.81,17.99,41.81,18.01,41.82,18.04
			L41.82,18.04z"/>
		<path class="st0" d="M13.83,3.67c0.07,0.07,0.16,0.14,0.22,0.22c2.39,3.02,4.78,6.04,7.18,9.05c0.13,0.16,0.14,0.25-0.04,0.39
			c-0.65,0.5-0.65,0.5-1.1-0.17c-2.05-3.05-4.1-6.09-6.15-9.14c-0.07-0.1-0.13-0.2-0.19-0.3l0.07-0.06L13.83,3.67z"/>
		<path class="st0" d="M6.59,17.94c0.33-0.02,0.65-0.05,0.98-0.07c2.7-0.11,5.41-0.23,8.11-0.34c0.91-0.04,1.83-0.07,2.74-0.12
			c0.15,0,0.23,0.03,0.23,0.2c0,0.23,0,0.46,0,0.69c0,0.17-0.08,0.21-0.23,0.2c-2.45-0.09-4.9-0.18-7.35-0.27
			c-1.42-0.05-2.84-0.11-4.26-0.16c-0.08,0-0.16-0.02-0.24-0.03c0-0.03,0-0.07,0-0.1H6.59z"/>
		<path class="st0" d="M21.99,12.87c-1.11-3.92-2.21-7.79-3.31-11.67c0.03-0.01,0.06-0.02,0.09-0.04c0.04,0.09,0.09,0.17,0.12,0.26
			c1.35,3.61,2.7,7.23,4.05,10.84c0.09,0.23,0.04,0.33-0.2,0.38C22.5,12.69,22.27,12.78,21.99,12.87z"/>
		<path class="st0" d="M7.49,23.37c0.09-0.04,0.18-0.08,0.27-0.12c3.1-1.14,6.18-2.31,9.26-3.49c0.49-0.19,0.99-0.34,1.49-0.52
			c0.16-0.06,0.25-0.04,0.3,0.13c0.08,0.27,0.17,0.54,0.27,0.87c-3.87,1.08-7.71,2.15-11.55,3.22c-0.01-0.03-0.02-0.06-0.03-0.09
			L7.49,23.37z"/>
		<path class="st0" d="M28.35,14.3c3.39-2.26,6.74-4.5,10.08-6.74c0.02,0.03,0.05,0.06,0.07,0.09C38.37,7.77,38.24,7.89,38.1,8
			c-1.3,1.03-2.59,2.06-3.89,3.07c-1.68,1.31-3.37,2.62-5.05,3.93c-0.1,0.08-0.19,0.12-0.29-0.01C28.7,14.76,28.53,14.53,28.35,14.3
			L28.35,14.3z"/>
		<path class="st0" d="M29.32,20.2c0.12-0.36,0.23-0.68,0.34-1.03c3.79,1.41,7.54,2.8,11.28,4.2c-0.01,0.04-0.03,0.09-0.04,0.13
			c-3.85-1.1-7.7-2.19-11.59-3.3L29.32,20.2z"/>
		<path class="st0" d="M25.37,12.54c1.42-3.83,2.83-7.6,4.23-11.37c0.03,0,0.07,0.02,0.1,0.03c-0.02,0.11-0.04,0.22-0.07,0.33
			c-0.4,1.39-0.8,2.78-1.2,4.17c-0.29,1-0.58,2-0.86,3.01c-0.36,1.29-0.72,2.58-1.07,3.87c-0.06,0.23-0.15,0.32-0.39,0.22
			c-0.22-0.1-0.46-0.16-0.73-0.25L25.37,12.54z"/>
		<path class="st0" d="M7.43,12.48c3.88,1.08,7.75,2.17,11.68,3.26c-0.12,0.34-0.23,0.66-0.35,1.02c-3.81-1.39-7.59-2.78-11.37-4.16
			c0.01-0.04,0.02-0.08,0.03-0.12L7.43,12.48z"/>
		<path class="st0" d="M27.86,13.8c-0.3-0.21-0.57-0.4-0.87-0.62c2.53-3.19,5.04-6.37,7.55-9.54c0.03,0.02,0.07,0.05,0.1,0.07
			c-0.05,0.08-0.11,0.16-0.16,0.25c-1,1.49-2.01,2.97-3,4.46c-1.13,1.69-2.26,3.38-3.39,5.07c-0.06,0.09-0.13,0.18-0.22,0.31
			L27.86,13.8z"/>
		<path class="st0" d="M24.22,0.31c0.01,0.06,0.04,0.12,0.04,0.18c0.06,1.62,0.12,3.24,0.18,4.86c0.08,2.24,0.16,4.48,0.24,6.72
			c0.01,0.4,0.01,0.4-0.38,0.39c-0.67-0.01-0.59,0.07-0.57-0.58c0.1-2.91,0.21-5.81,0.32-8.72c0.03-0.83,0.05-1.66,0.08-2.49
			c0-0.12,0-0.24,0-0.36c0.03,0,0.07,0,0.1,0L24.22,0.31z"/>
	</g>
</g>
<g>
	<path class="st0" d="M51.76,6.42c-0.87,0-1.58,0.18-2.14,0.53c-0.56,0.36-0.84,0.9-0.84,1.62s0.28,1.27,0.84,1.66
		c0.56,0.38,1.74,0.79,3.56,1.24c1.81,0.44,3.18,1.06,4.1,1.86s1.38,1.97,1.38,3.53s-0.58,2.81-1.75,3.78s-2.69,1.45-4.58,1.45
		c-2.77,0-5.22-0.96-7.37-2.88l1.87-2.27c1.79,1.56,3.65,2.34,5.57,2.34c0.96,0,1.73-0.21,2.29-0.62c0.56-0.42,0.85-0.97,0.85-1.66
		s-0.27-1.22-0.8-1.6s-1.45-0.73-2.75-1.04s-2.29-0.6-2.96-0.87c-0.67-0.26-1.27-0.61-1.8-1.03c-1.05-0.8-1.57-2.02-1.57-3.67
		s0.6-2.92,1.79-3.81s2.66-1.34,4.42-1.34c1.13,0,2.25,0.19,3.37,0.56s2.08,0.9,2.89,1.58l-1.6,2.27c-0.52-0.47-1.23-0.87-2.13-1.17
		c-0.89-0.31-1.78-0.46-2.65-0.46H51.76z"/>
	<path class="st0" d="M76.48,9.86c0,2.94-1.27,4.79-3.82,5.55l4.63,6.47h-3.8l-4.23-5.99h-3.92v5.99h-2.99V4.08h6.58
		c2.7,0,4.63,0.46,5.8,1.38S76.48,7.85,76.48,9.86L76.48,9.86z M72.5,12.38c0.61-0.53,0.91-1.37,0.91-2.53s-0.31-1.96-0.94-2.39
		c-0.62-0.43-1.74-0.65-3.34-0.65h-3.8v6.37h3.72C70.74,13.18,71.89,12.92,72.5,12.38L72.5,12.38z"/>
	<path class="st0" d="M87.22,6.83v15.05h-2.99V6.83h-5.37V4.08h13.72v2.75h-5.37H87.22z"/>
	<path class="st0" d="M96.94,17.83l-1.77,4.05h-3.19l7.8-17.8h3.19l7.8,17.8h-3.19l-1.77-4.05h-8.86H96.94z M104.59,15.05
		l-3.22-7.33l-3.21,7.33H104.59z"/>
	<path class="st0" d="M128.23,19.15c1.03,0,1.92-0.17,2.66-0.52c0.74-0.35,1.52-0.9,2.33-1.67l1.92,1.99
		c-1.87,2.09-4.15,3.13-6.82,3.13c-2.67,0-4.9-0.87-6.66-2.6c-1.76-1.73-2.65-3.92-2.65-6.57s0.9-4.86,2.7-6.62
		c1.8-1.77,4.07-2.65,6.81-2.65c2.74,0,5.03,1.02,6.87,3.06l-1.9,2.09c-0.85-0.81-1.64-1.38-2.39-1.71
		c-0.75-0.32-1.63-0.48-2.65-0.48c-1.79,0-3.29,0.58-4.51,1.74s-1.82,2.65-1.82,4.46s0.6,3.32,1.81,4.53s2.64,1.82,4.29,1.82H128.23
		z"/>
	<path class="st0" d="M138.79,4.08h2.99v17.8h-2.99V4.08z"/>
	<path class="st0" d="M153.38,6.83v15.05h-2.99V6.83h-5.37V4.08h13.72v2.75H153.38L153.38,6.83z"/>
	<path class="st0" d="M168.95,21.88h-3.04v-7.03l-6.58-10.77h3.27l4.84,8.1l4.84-8.1h3.27l-6.58,10.77v7.03H168.95z"/>
</g>
<g>
	<path class="st0" d="M51.07,31.61c0.32,0,0.6-0.05,0.83-0.16s0.47-0.28,0.73-0.52l0.6,0.62c-0.59,0.65-1.3,0.98-2.13,0.98
		s-1.53-0.27-2.08-0.81c-0.55-0.54-0.83-1.23-0.83-2.05s0.28-1.52,0.84-2.07s1.27-0.83,2.13-0.83s1.57,0.32,2.15,0.96l-0.59,0.65
		c-0.26-0.25-0.51-0.43-0.75-0.53s-0.51-0.15-0.83-0.15c-0.56,0-1.03,0.18-1.41,0.55c-0.38,0.36-0.57,0.83-0.57,1.39
		s0.19,1.04,0.57,1.42c0.38,0.38,0.82,0.57,1.34,0.57L51.07,31.61z"/>
	<path class="st0" d="M54.3,27.39c-0.11-0.11-0.17-0.24-0.17-0.4s0.06-0.29,0.17-0.4c0.11-0.11,0.24-0.17,0.4-0.17
		s0.28,0.06,0.4,0.17c0.11,0.11,0.17,0.24,0.17,0.4s-0.06,0.29-0.17,0.4c-0.11,0.11-0.24,0.17-0.4,0.17S54.42,27.5,54.3,27.39z
		 M55.13,32.47h-0.89v-4.23h0.89V32.47z"/>
	<path class="st0" d="M57.51,28.95v2.15c0,0.2,0.05,0.36,0.16,0.48c0.11,0.12,0.25,0.18,0.44,0.18s0.37-0.09,0.55-0.28l0.36,0.63
		c-0.31,0.28-0.66,0.42-1.03,0.42s-0.7-0.13-0.97-0.39c-0.27-0.26-0.4-0.62-0.4-1.06v-2.13h-0.53v-0.72h0.53V26.9h0.89v1.33h1.11
		v0.72C58.62,28.95,57.51,28.95,57.51,28.95z"/>
	<path class="st0" d="M60.25,34.15c-0.39,0-0.73-0.14-1.04-0.42l0.4-0.72c0.18,0.17,0.38,0.26,0.57,0.26s0.36-0.07,0.48-0.22
		c0.12-0.14,0.19-0.3,0.19-0.47c0-0.07-0.57-1.53-1.7-4.35h0.95l1.26,3.12l1.26-3.12h0.95l-2.04,5.03c-0.12,0.28-0.3,0.49-0.52,0.65
		C60.78,34.07,60.53,34.15,60.25,34.15L60.25,34.15z"/>
	<path class="st0" d="M69.96,31.9c-0.42,0.42-0.95,0.63-1.58,0.63s-1.16-0.21-1.58-0.63c-0.42-0.42-0.63-0.94-0.63-1.55
		s0.21-1.13,0.63-1.55s0.95-0.63,1.58-0.63s1.16,0.21,1.58,0.63s0.63,0.94,0.63,1.55S70.38,31.49,69.96,31.9z M67.42,31.35
		c0.25,0.26,0.57,0.39,0.95,0.39s0.7-0.13,0.95-0.39s0.38-0.59,0.38-1s-0.13-0.74-0.38-1s-0.57-0.39-0.95-0.39s-0.7,0.13-0.95,0.39
		s-0.38,0.59-0.38,1S67.17,31.09,67.42,31.35z"/>
	<path class="st0" d="M72.62,27.88v0.35h1.11v0.72h-1.11v3.52h-0.89v-3.52H71.2v-0.72h0.53V27.9c0-0.45,0.13-0.8,0.4-1.06
		c0.27-0.26,0.59-0.39,0.97-0.39s0.72,0.14,1.03,0.42l-0.36,0.63c-0.18-0.19-0.36-0.28-0.55-0.28s-0.34,0.06-0.44,0.18
		C72.67,27.52,72.62,27.68,72.62,27.88z"/>
	<path class="st0" d="M78.56,27.63c-0.27,0-0.49,0.06-0.67,0.17c-0.17,0.11-0.26,0.28-0.26,0.51s0.09,0.4,0.26,0.52
		c0.17,0.12,0.55,0.25,1.11,0.39c0.57,0.14,0.99,0.33,1.28,0.58s0.43,0.62,0.43,1.1s-0.18,0.88-0.55,1.18
		c-0.36,0.3-0.84,0.45-1.43,0.45c-0.87,0-1.63-0.3-2.3-0.9l0.59-0.71c0.56,0.49,1.14,0.73,1.74,0.73c0.3,0,0.54-0.07,0.72-0.2
		s0.27-0.3,0.27-0.52s-0.08-0.38-0.25-0.5s-0.45-0.23-0.86-0.33s-0.72-0.19-0.93-0.27s-0.4-0.19-0.56-0.32
		c-0.33-0.25-0.49-0.63-0.49-1.15s0.19-0.91,0.56-1.19c0.37-0.28,0.83-0.42,1.38-0.42c0.35,0,0.7,0.06,1.05,0.18
		c0.35,0.12,0.65,0.28,0.9,0.49l-0.5,0.71c-0.16-0.15-0.39-0.27-0.66-0.37c-0.28-0.1-0.56-0.14-0.83-0.14L78.56,27.63z"/>
	<path class="st0" d="M83.61,32.53c-0.59,0-1.09-0.2-1.51-0.6c-0.42-0.4-0.63-0.92-0.63-1.57s0.22-1.18,0.66-1.58
		c0.44-0.41,0.98-0.61,1.61-0.61s1.17,0.22,1.61,0.66l-0.52,0.64c-0.36-0.32-0.73-0.48-1.1-0.48s-0.69,0.12-0.96,0.37
		s-0.41,0.57-0.41,0.96s0.13,0.72,0.4,0.99c0.27,0.27,0.6,0.41,0.99,0.41s0.76-0.18,1.11-0.54l0.52,0.57
		C84.87,32.27,84.28,32.53,83.61,32.53z"/>
	<path class="st0" d="M86.36,27.39c-0.11-0.11-0.17-0.24-0.17-0.4s0.06-0.29,0.17-0.4c0.11-0.11,0.24-0.17,0.39-0.17
		s0.29,0.06,0.4,0.17s0.17,0.24,0.17,0.4s-0.06,0.29-0.17,0.4c-0.11,0.11-0.24,0.17-0.4,0.17S86.47,27.5,86.36,27.39z M87.19,32.47
		H86.3v-4.23h0.89V32.47z"/>
	<path class="st0" d="M92.39,30.74h-3.3c0.02,0.31,0.16,0.56,0.42,0.74c0.26,0.19,0.55,0.28,0.89,0.28c0.53,0,0.93-0.17,1.2-0.5
		l0.51,0.56c-0.45,0.47-1.05,0.71-1.77,0.71c-0.59,0-1.09-0.2-1.51-0.59c-0.41-0.4-0.62-0.93-0.62-1.59s0.21-1.19,0.63-1.59
		c0.42-0.39,0.92-0.59,1.49-0.59s1.06,0.17,1.46,0.52s0.6,0.83,0.6,1.44L92.39,30.74L92.39,30.74z M89.09,30.04h2.41
		c0-0.36-0.11-0.63-0.33-0.82s-0.49-0.29-0.82-0.29s-0.62,0.1-0.87,0.3S89.09,29.7,89.09,30.04z"/>
	<path class="st0" d="M94.25,30.17v2.29h-0.89v-4.23h0.89v0.77c0.14-0.26,0.34-0.47,0.59-0.61c0.25-0.15,0.52-0.22,0.81-0.22
		c0.47,0,0.86,0.15,1.15,0.44s0.44,0.71,0.44,1.27v2.6h-0.89v-2.32c0-0.78-0.32-1.17-0.97-1.17c-0.31,0-0.57,0.1-0.8,0.31
		c-0.23,0.2-0.34,0.5-0.34,0.89L94.25,30.17z"/>
	<path class="st0" d="M99.51,28.95v2.15c0,0.2,0.05,0.36,0.16,0.48s0.25,0.18,0.44,0.18s0.37-0.09,0.55-0.28l0.36,0.63
		c-0.31,0.28-0.66,0.42-1.03,0.42s-0.7-0.13-0.97-0.39s-0.4-0.62-0.4-1.06v-2.13h-0.53v-0.72h0.53V26.9h0.89v1.33h1.11v0.72
		C100.62,28.95,99.51,28.95,99.51,28.95z"/>
	<path class="st0" d="M101.78,27.39c-0.11-0.11-0.17-0.24-0.17-0.4s0.06-0.29,0.17-0.4c0.11-0.11,0.24-0.17,0.39-0.17
		s0.29,0.06,0.4,0.17s0.17,0.24,0.17,0.4s-0.06,0.29-0.17,0.4c-0.11,0.11-0.24,0.17-0.4,0.17S101.89,27.5,101.78,27.39z
		 M102.61,32.47h-0.89v-4.23h0.89V32.47z"/>
	<path class="st0" d="M104.99,27.88v0.35h1.11v0.72h-1.11v3.52h-0.89v-3.52h-0.53v-0.72h0.53V27.9c0-0.45,0.13-0.8,0.4-1.06
		c0.27-0.26,0.59-0.39,0.97-0.39s0.72,0.14,1.03,0.42l-0.36,0.63c-0.17-0.19-0.36-0.28-0.55-0.28s-0.34,0.06-0.44,0.18
		S104.99,27.68,104.99,27.88z"/>
	<path class="st0" d="M107,27.39c-0.11-0.11-0.17-0.24-0.17-0.4s0.06-0.29,0.17-0.4c0.11-0.11,0.24-0.17,0.39-0.17
		s0.29,0.06,0.4,0.17s0.17,0.24,0.17,0.4s-0.06,0.29-0.17,0.4c-0.11,0.11-0.24,0.17-0.4,0.17S107.11,27.5,107,27.39z M107.83,32.47
		h-0.89v-4.23h0.89V32.47z"/>
	<path class="st0" d="M110.98,32.53c-0.59,0-1.09-0.2-1.51-0.6c-0.42-0.4-0.63-0.92-0.63-1.57s0.22-1.18,0.66-1.58
		c0.44-0.41,0.98-0.61,1.61-0.61s1.17,0.22,1.61,0.66l-0.52,0.64c-0.36-0.32-0.73-0.48-1.1-0.48s-0.69,0.12-0.96,0.37
		s-0.41,0.57-0.41,0.96s0.13,0.72,0.4,0.99c0.27,0.27,0.6,0.41,0.99,0.41s0.76-0.18,1.11-0.54l0.52,0.57
		C112.24,32.27,111.65,32.53,110.98,32.53z"/>
	<path class="st0" d="M120.39,28.71c0,0.92-0.4,1.5-1.19,1.74l1.45,2.02h-1.19l-1.32-1.87h-1.23v1.87h-0.93v-5.56h2.06
		c0.84,0,1.45,0.14,1.81,0.43s0.55,0.75,0.55,1.38L120.39,28.71z M119.15,29.5c0.19-0.16,0.28-0.43,0.28-0.79s-0.1-0.61-0.29-0.75
		c-0.2-0.14-0.54-0.2-1.05-0.2h-1.19v1.99h1.16c0.53,0,0.89-0.08,1.08-0.25L119.15,29.5z"/>
	<path class="st0" d="M125.52,30.74h-3.3c0.02,0.31,0.16,0.56,0.42,0.74c0.26,0.19,0.55,0.28,0.89,0.28c0.53,0,0.93-0.17,1.2-0.5
		l0.51,0.56c-0.45,0.47-1.05,0.71-1.77,0.71c-0.59,0-1.09-0.2-1.51-0.59c-0.41-0.4-0.62-0.93-0.62-1.59s0.21-1.19,0.63-1.59
		c0.42-0.39,0.92-0.59,1.49-0.59s1.06,0.17,1.46,0.52s0.6,0.83,0.6,1.44L125.52,30.74L125.52,30.74z M122.22,30.04h2.41
		c0-0.36-0.11-0.63-0.33-0.82s-0.49-0.29-0.82-0.29s-0.62,0.1-0.87,0.3S122.22,29.7,122.22,30.04z"/>
	<path class="st0" d="M129.5,31.2c0,0.4-0.15,0.73-0.44,0.97c-0.29,0.24-0.66,0.36-1.12,0.36c-0.31,0-0.62-0.06-0.95-0.17
		c-0.33-0.11-0.62-0.27-0.87-0.47l0.43-0.69c0.49,0.37,0.97,0.56,1.42,0.56c0.2,0,0.36-0.05,0.48-0.14
		c0.12-0.09,0.17-0.21,0.17-0.35c0-0.21-0.28-0.4-0.84-0.57c-0.04-0.02-0.07-0.03-0.09-0.03c-0.88-0.24-1.31-0.64-1.31-1.19
		c0-0.39,0.15-0.71,0.45-0.94c0.3-0.24,0.7-0.35,1.18-0.35c0.48,0,0.94,0.14,1.38,0.43l-0.33,0.66c-0.34-0.23-0.72-0.34-1.12-0.34
		c-0.21,0-0.38,0.04-0.51,0.12c-0.13,0.08-0.2,0.19-0.2,0.35c0,0.14,0.07,0.24,0.21,0.3c0.09,0.05,0.23,0.09,0.4,0.14
		s0.32,0.08,0.45,0.13c0.13,0.05,0.26,0.09,0.38,0.14s0.26,0.13,0.4,0.22c0.28,0.19,0.43,0.49,0.43,0.89V31.2z"/>
	<path class="st0" d="M134.42,30.74h-3.3c0.02,0.31,0.16,0.56,0.42,0.74c0.26,0.19,0.55,0.28,0.89,0.28c0.53,0,0.93-0.17,1.2-0.5
		l0.51,0.56c-0.45,0.47-1.05,0.71-1.77,0.71c-0.59,0-1.09-0.2-1.51-0.59c-0.41-0.4-0.62-0.93-0.62-1.59s0.21-1.19,0.63-1.59
		c0.42-0.39,0.92-0.59,1.49-0.59s1.06,0.17,1.46,0.52c0.4,0.35,0.6,0.83,0.6,1.44L134.42,30.74L134.42,30.74z M131.12,30.04h2.41
		c0-0.36-0.11-0.63-0.33-0.82s-0.49-0.29-0.82-0.29s-0.62,0.1-0.87,0.3S131.12,29.7,131.12,30.04z"/>
	<path class="st0" d="M138.8,32.47h-0.81v-0.56c-0.35,0.42-0.81,0.63-1.4,0.63c-0.44,0-0.8-0.13-1.09-0.37
		c-0.29-0.25-0.43-0.58-0.43-1s0.15-0.73,0.46-0.94c0.31-0.21,0.72-0.31,1.24-0.31h1.15v-0.16c0-0.56-0.31-0.84-0.93-0.84
		c-0.39,0-0.8,0.14-1.22,0.43l-0.4-0.56c0.51-0.41,1.09-0.61,1.74-0.61c0.5,0,0.9,0.13,1.22,0.38c0.31,0.25,0.47,0.65,0.47,1.19
		L138.8,32.47L138.8,32.47z M137.91,30.89v-0.36h-1c-0.64,0-0.96,0.2-0.96,0.61c0,0.21,0.08,0.36,0.24,0.47s0.38,0.16,0.66,0.16
		s0.53-0.08,0.74-0.24S137.91,31.16,137.91,30.89L137.91,30.89z"/>
	<path class="st0" d="M142.25,29.07c-0.44,0-0.77,0.14-0.99,0.43s-0.33,0.67-0.33,1.15v1.82h-0.89v-4.23h0.89v0.85
		c0.14-0.27,0.34-0.48,0.58-0.65c0.25-0.17,0.5-0.26,0.78-0.26v0.9h-0.04V29.07z"/>
	<path class="st0" d="M145.05,32.53c-0.59,0-1.09-0.2-1.51-0.6s-0.63-0.92-0.63-1.57s0.22-1.18,0.66-1.58
		c0.44-0.41,0.98-0.61,1.61-0.61s1.17,0.22,1.61,0.66l-0.52,0.64c-0.36-0.32-0.73-0.48-1.1-0.48s-0.69,0.12-0.96,0.37
		s-0.41,0.57-0.41,0.96s0.13,0.72,0.4,0.99c0.27,0.27,0.6,0.41,0.99,0.41s0.76-0.18,1.11-0.54l0.52,0.57
		C146.31,32.27,145.72,32.53,145.05,32.53L145.05,32.53z"/>
	<path class="st0" d="M148.63,30.17v2.29h-0.89v-5.9h0.89v2.44c0.13-0.26,0.32-0.47,0.57-0.61s0.53-0.22,0.83-0.22
		c0.47,0,0.86,0.15,1.15,0.44s0.44,0.71,0.44,1.27v2.6h-0.89v-2.32c0-0.78-0.32-1.17-0.97-1.17c-0.31,0-0.57,0.1-0.8,0.31
		c-0.23,0.2-0.34,0.5-0.34,0.89L148.63,30.17z"/>
	<path class="st0" d="M158.43,32.47h-0.81v-0.56c-0.35,0.42-0.81,0.63-1.4,0.63c-0.44,0-0.8-0.13-1.09-0.37
		c-0.29-0.25-0.43-0.58-0.43-1s0.15-0.73,0.46-0.94c0.31-0.21,0.72-0.31,1.24-0.31h1.15v-0.16c0-0.56-0.31-0.84-0.93-0.84
		c-0.39,0-0.8,0.14-1.22,0.43l-0.4-0.56c0.51-0.41,1.09-0.61,1.74-0.61c0.5,0,0.9,0.13,1.22,0.38c0.31,0.25,0.47,0.65,0.47,1.19
		L158.43,32.47L158.43,32.47z M157.54,30.89v-0.36h-1c-0.64,0-0.96,0.2-0.96,0.61c0,0.21,0.08,0.36,0.24,0.47s0.38,0.16,0.66,0.16
		s0.53-0.08,0.74-0.24S157.54,31.16,157.54,30.89L157.54,30.89z"/>
	<path class="st0" d="M160.55,30.17v2.29h-0.89v-4.23h0.89v0.77c0.14-0.26,0.34-0.47,0.59-0.61c0.25-0.15,0.52-0.22,0.81-0.22
		c0.47,0,0.86,0.15,1.15,0.44s0.44,0.71,0.44,1.27v2.6h-0.89v-2.32c0-0.78-0.32-1.17-0.97-1.17c-0.31,0-0.57,0.1-0.8,0.31
		c-0.23,0.2-0.34,0.5-0.34,0.89L160.55,30.17z"/>
	<path class="st0" d="M165.1,31.92c-0.4-0.4-0.59-0.93-0.59-1.59s0.2-1.18,0.61-1.58c0.41-0.39,0.89-0.59,1.45-0.59
		s1.01,0.24,1.36,0.72v-2.32h0.89v5.91h-0.89v-0.64c-0.33,0.47-0.8,0.7-1.43,0.7c-0.53,0-1-0.2-1.39-0.61H165.1z M165.39,30.36
		c0,0.41,0.13,0.74,0.39,0.99s0.56,0.38,0.91,0.38s0.64-0.13,0.89-0.39c0.24-0.26,0.36-0.59,0.36-0.99s-0.12-0.74-0.36-1.01
		s-0.54-0.41-0.89-0.41s-0.66,0.14-0.91,0.41S165.4,29.95,165.39,30.36L165.39,30.36z"/>
	<path class="st0" d="M57.71,36.59v4.7h-0.93v-4.7H55.1v-0.86h4.29v0.86H57.71z"/>
	<path class="st0" d="M64.2,39.56h-3.3c0.02,0.31,0.16,0.56,0.42,0.74c0.26,0.19,0.55,0.28,0.89,0.28c0.53,0,0.93-0.17,1.2-0.5
		l0.51,0.56c-0.45,0.47-1.04,0.71-1.77,0.71c-0.59,0-1.09-0.2-1.51-0.59c-0.41-0.4-0.62-0.93-0.62-1.59s0.21-1.19,0.63-1.59
		c0.42-0.39,0.92-0.59,1.49-0.59s1.06,0.17,1.46,0.52c0.4,0.35,0.6,0.83,0.6,1.44V39.56z M60.9,38.86h2.41
		c0-0.36-0.11-0.63-0.33-0.82s-0.49-0.29-0.82-0.29s-0.62,0.1-0.87,0.3S60.9,38.52,60.9,38.86z"/>
	<path class="st0" d="M67.04,41.35c-0.59,0-1.09-0.2-1.51-0.6c-0.42-0.4-0.63-0.92-0.63-1.57s0.22-1.18,0.66-1.58
		c0.44-0.41,0.98-0.61,1.61-0.61c0.63,0,1.17,0.22,1.61,0.66l-0.52,0.64c-0.36-0.32-0.73-0.48-1.1-0.48s-0.69,0.12-0.96,0.37
		c-0.27,0.25-0.41,0.57-0.41,0.96s0.13,0.72,0.4,0.99c0.27,0.27,0.6,0.41,0.99,0.41s0.76-0.18,1.11-0.54l0.52,0.57
		C68.3,41.09,67.71,41.35,67.04,41.35z"/>
	<path class="st0" d="M70.62,39v2.29h-0.89v-5.9h0.89v2.44c0.13-0.26,0.32-0.47,0.57-0.61S71.72,37,72.02,37
		c0.48,0,0.86,0.15,1.15,0.44s0.44,0.71,0.44,1.27v2.6h-0.89v-2.32c0-0.78-0.32-1.17-0.97-1.17c-0.31,0-0.57,0.1-0.8,0.31
		c-0.23,0.2-0.34,0.5-0.34,0.89L70.62,39z"/>
	<path class="st0" d="M75.73,39v2.29h-0.89v-4.23h0.89v0.77c0.14-0.26,0.34-0.47,0.59-0.61c0.25-0.15,0.52-0.22,0.81-0.22
		c0.47,0,0.86,0.15,1.15,0.44s0.44,0.71,0.44,1.27v2.6h-0.89v-2.32c0-0.78-0.32-1.17-0.97-1.17c-0.31,0-0.57,0.1-0.8,0.31
		c-0.23,0.2-0.34,0.5-0.34,0.89L75.73,39z"/>
	<path class="st0" d="M83.48,40.72c-0.42,0.42-0.95,0.63-1.58,0.63s-1.16-0.21-1.58-0.63s-0.63-0.94-0.63-1.55s0.21-1.13,0.63-1.55
		s0.95-0.63,1.58-0.63s1.16,0.21,1.58,0.63c0.42,0.42,0.63,0.94,0.63,1.55S83.9,40.31,83.48,40.72z M80.94,40.17
		c0.25,0.26,0.57,0.39,0.95,0.39s0.7-0.13,0.95-0.39s0.38-0.59,0.38-1s-0.13-0.74-0.38-1s-0.57-0.39-0.95-0.39s-0.7,0.13-0.95,0.39
		s-0.38,0.59-0.38,1S80.69,39.92,80.94,40.17z"/>
	<path class="st0" d="M86,41.29h-0.89v-5.91H86V41.29z"/>
	<path class="st0" d="M90.8,40.72c-0.42,0.42-0.95,0.63-1.58,0.63s-1.16-0.21-1.58-0.63s-0.63-0.94-0.63-1.55s0.21-1.13,0.63-1.55
		s0.95-0.63,1.58-0.63s1.16,0.21,1.58,0.63c0.42,0.42,0.63,0.94,0.63,1.55S91.22,40.31,90.8,40.72z M88.26,40.17
		c0.25,0.26,0.57,0.39,0.95,0.39s0.7-0.13,0.95-0.39s0.38-0.59,0.38-1s-0.13-0.74-0.38-1s-0.57-0.39-0.95-0.39s-0.7,0.13-0.95,0.39
		s-0.38,0.59-0.38,1S88.01,39.92,88.26,40.17z"/>
	<path class="st0" d="M96.34,37.06v3.69c0,0.75-0.2,1.31-0.61,1.68c-0.4,0.37-0.92,0.56-1.55,0.56s-1.21-0.2-1.72-0.6l0.42-0.68
		c0.41,0.31,0.83,0.47,1.25,0.47s0.75-0.11,1-0.33s0.37-0.56,0.37-1.04v-0.54c-0.13,0.25-0.32,0.45-0.57,0.6
		c-0.25,0.15-0.52,0.22-0.83,0.22c-0.56,0-1.02-0.2-1.38-0.59s-0.54-0.88-0.54-1.46s0.18-1.07,0.54-1.47
		c0.36-0.39,0.82-0.59,1.37-0.59s1.01,0.23,1.36,0.69v-0.63h0.89V37.06z M93.06,39.01c0,0.35,0.11,0.65,0.32,0.9s0.5,0.38,0.86,0.38
		s0.65-0.12,0.88-0.37s0.34-0.55,0.34-0.91s-0.11-0.67-0.34-0.92s-0.52-0.38-0.88-0.38s-0.64,0.13-0.86,0.39
		C93.17,38.37,93.06,38.67,93.06,39.01z"/>
	<path class="st0" d="M97.68,36.22c-0.11-0.11-0.17-0.24-0.17-0.4s0.06-0.29,0.17-0.4s0.24-0.17,0.39-0.17s0.29,0.06,0.4,0.17
		c0.11,0.11,0.17,0.24,0.17,0.4s-0.06,0.29-0.17,0.4s-0.24,0.17-0.4,0.17S97.79,36.32,97.68,36.22z M98.51,41.3h-0.89v-4.23h0.89
		V41.3z"/>
	<path class="st0" d="M101.66,41.35c-0.59,0-1.09-0.2-1.51-0.6c-0.42-0.4-0.63-0.92-0.63-1.57s0.22-1.18,0.66-1.58
		c0.44-0.41,0.98-0.61,1.61-0.61s1.17,0.22,1.61,0.66l-0.52,0.64c-0.36-0.32-0.73-0.48-1.1-0.48s-0.69,0.12-0.96,0.37
		s-0.41,0.57-0.41,0.96s0.13,0.72,0.4,0.99c0.27,0.27,0.6,0.41,0.99,0.41s0.76-0.18,1.11-0.54l0.52,0.57
		C102.92,41.09,102.33,41.35,101.66,41.35z"/>
	<path class="st0" d="M107.73,41.29h-0.81v-0.56c-0.35,0.42-0.81,0.63-1.4,0.63c-0.44,0-0.8-0.13-1.09-0.37
		c-0.29-0.25-0.43-0.58-0.43-1s0.15-0.73,0.46-0.94s0.72-0.31,1.24-0.31h1.15v-0.16c0-0.56-0.31-0.84-0.93-0.84
		c-0.39,0-0.8,0.14-1.22,0.43l-0.4-0.56c0.51-0.41,1.09-0.61,1.74-0.61c0.5,0,0.9,0.13,1.22,0.38c0.31,0.25,0.47,0.65,0.47,1.19
		V41.29L107.73,41.29z M106.84,39.71v-0.36h-1c-0.64,0-0.96,0.2-0.96,0.61c0,0.21,0.08,0.36,0.24,0.47s0.38,0.16,0.66,0.16
		s0.53-0.08,0.74-0.24S106.84,39.98,106.84,39.71z"/>
	<path class="st0" d="M109.85,41.29h-0.89v-5.91h0.89V41.29z"/>
	<path class="st0" d="M114.21,40.02l-0.55,1.27h-1l2.44-5.56h1l2.44,5.56h-1l-0.55-1.27h-2.77H114.21z M116.6,39.15l-1.01-2.29
		l-1,2.29H116.6z"/>
	<path class="st0" d="M121.43,36.99c0.56,0,1.05,0.2,1.45,0.59c0.4,0.39,0.6,0.92,0.6,1.57s-0.2,1.18-0.6,1.59s-0.86,0.61-1.39,0.61
		s-1.01-0.23-1.43-0.7v2.18h-0.89v-5.78h0.89v0.74C120.41,37.26,120.86,37,121.43,36.99z M120.05,39.18c0,0.4,0.12,0.73,0.36,0.99
		c0.24,0.26,0.54,0.39,0.89,0.39s0.65-0.13,0.91-0.38s0.39-0.58,0.39-0.99s-0.13-0.74-0.38-1.01c-0.25-0.27-0.56-0.4-0.91-0.4
		s-0.65,0.13-0.89,0.4s-0.36,0.6-0.36,1.01L120.05,39.18z"/>
	<path class="st0" d="M126.74,36.99c0.56,0,1.05,0.2,1.45,0.59c0.4,0.39,0.6,0.92,0.6,1.57s-0.2,1.18-0.6,1.59
		c-0.4,0.41-0.86,0.61-1.39,0.61s-1.01-0.23-1.43-0.7v2.18h-0.89v-5.78h0.89v0.74C125.72,37.26,126.17,37,126.74,36.99z
		 M125.36,39.18c0,0.4,0.12,0.73,0.36,0.99c0.24,0.26,0.54,0.39,0.89,0.39s0.65-0.13,0.91-0.38s0.39-0.58,0.39-0.99
		s-0.13-0.74-0.38-1.01c-0.25-0.27-0.56-0.4-0.91-0.4s-0.65,0.13-0.89,0.4s-0.36,0.6-0.36,1.01L125.36,39.18z"/>
	<path class="st0" d="M130.69,41.29h-0.89v-5.91h0.89V41.29z"/>
	<path class="st0" d="M132.03,36.22c-0.11-0.11-0.17-0.24-0.17-0.4s0.06-0.29,0.17-0.4s0.24-0.17,0.39-0.17s0.29,0.06,0.4,0.17
		c0.11,0.11,0.17,0.24,0.17,0.4s-0.06,0.29-0.17,0.4s-0.24,0.17-0.4,0.17S132.14,36.32,132.03,36.22z M132.86,41.3h-0.89v-4.23h0.89
		V41.3z"/>
	<path class="st0" d="M136.01,41.35c-0.59,0-1.09-0.2-1.51-0.6c-0.42-0.4-0.63-0.92-0.63-1.57s0.22-1.18,0.66-1.58
		c0.44-0.41,0.98-0.61,1.61-0.61s1.17,0.22,1.61,0.66l-0.52,0.64c-0.36-0.32-0.73-0.48-1.1-0.48s-0.69,0.12-0.96,0.37
		s-0.41,0.57-0.41,0.96s0.13,0.72,0.4,0.99c0.27,0.27,0.6,0.41,0.99,0.41s0.76-0.18,1.11-0.54l0.52,0.57
		C137.27,41.09,136.68,41.35,136.01,41.35L136.01,41.35z"/>
	<path class="st0" d="M142.08,41.29h-0.81v-0.56c-0.35,0.42-0.81,0.63-1.4,0.63c-0.44,0-0.8-0.13-1.09-0.37
		c-0.29-0.25-0.43-0.58-0.43-1s0.15-0.73,0.46-0.94c0.31-0.21,0.72-0.31,1.24-0.31h1.15v-0.16c0-0.56-0.31-0.84-0.93-0.84
		c-0.39,0-0.8,0.14-1.22,0.43l-0.4-0.56c0.51-0.41,1.09-0.61,1.74-0.61c0.5,0,0.9,0.13,1.22,0.38c0.31,0.25,0.47,0.65,0.47,1.19
		L142.08,41.29L142.08,41.29z M141.19,39.71v-0.36h-1c-0.64,0-0.96,0.2-0.96,0.61c0,0.21,0.08,0.36,0.24,0.47s0.38,0.16,0.66,0.16
		s0.53-0.08,0.74-0.24S141.19,39.98,141.19,39.71L141.19,39.71z"/>
	<path class="st0" d="M144.36,37.77v2.15c0,0.2,0.05,0.36,0.16,0.48s0.25,0.18,0.44,0.18s0.37-0.09,0.55-0.28l0.36,0.63
		c-0.31,0.28-0.66,0.42-1.03,0.42s-0.7-0.13-0.97-0.39s-0.4-0.62-0.4-1.06v-2.13h-0.53v-0.72h0.53v-1.33h0.89v1.33h1.11v0.72H144.36
		L144.36,37.77z"/>
	<path class="st0" d="M146.63,36.22c-0.11-0.11-0.17-0.24-0.17-0.4s0.06-0.29,0.17-0.4s0.24-0.17,0.39-0.17s0.29,0.06,0.4,0.17
		c0.11,0.11,0.17,0.24,0.17,0.4s-0.06,0.29-0.17,0.4s-0.24,0.17-0.4,0.17S146.74,36.32,146.63,36.22z M147.46,41.3h-0.89v-4.23h0.89
		V41.3z"/>
	<path class="st0" d="M152.27,40.72c-0.42,0.42-0.95,0.63-1.58,0.63s-1.16-0.21-1.58-0.63s-0.63-0.94-0.63-1.55s0.21-1.13,0.63-1.55
		s0.95-0.63,1.58-0.63s1.16,0.21,1.58,0.63c0.42,0.42,0.63,0.94,0.63,1.55S152.69,40.31,152.27,40.72z M149.73,40.17
		c0.25,0.26,0.57,0.39,0.95,0.39s0.7-0.13,0.95-0.39s0.38-0.59,0.38-1s-0.13-0.74-0.38-1s-0.57-0.39-0.95-0.39s-0.7,0.13-0.95,0.39
		s-0.38,0.59-0.38,1S149.48,39.92,149.73,40.17z"/>
	<path class="st0" d="M154.79,39v2.29h-0.89v-4.23h0.89v0.77c0.14-0.26,0.34-0.47,0.59-0.61c0.25-0.15,0.52-0.22,0.81-0.22
		c0.47,0,0.86,0.15,1.15,0.44s0.44,0.71,0.44,1.27v2.6h-0.89v-2.32c0-0.78-0.32-1.17-0.97-1.17c-0.31,0-0.57,0.1-0.8,0.31
		c-0.23,0.2-0.34,0.5-0.34,0.89L154.79,39z"/>
	<path class="st0" d="M162.02,40.02c0,0.4-0.15,0.73-0.44,0.97c-0.29,0.24-0.66,0.36-1.12,0.36c-0.31,0-0.62-0.06-0.95-0.17
		c-0.33-0.11-0.62-0.27-0.87-0.47l0.43-0.69c0.49,0.37,0.97,0.56,1.42,0.56c0.2,0,0.36-0.05,0.48-0.14s0.17-0.21,0.17-0.35
		c0-0.21-0.28-0.4-0.84-0.57c-0.04-0.02-0.07-0.03-0.09-0.03c-0.88-0.24-1.31-0.64-1.31-1.19c0-0.39,0.15-0.71,0.45-0.94
		c0.3-0.24,0.7-0.35,1.18-0.35s0.94,0.14,1.38,0.43l-0.33,0.66c-0.34-0.23-0.72-0.34-1.12-0.34c-0.21,0-0.38,0.04-0.51,0.12
		c-0.13,0.08-0.2,0.19-0.2,0.35c0,0.14,0.07,0.24,0.21,0.3c0.09,0.05,0.23,0.09,0.4,0.14s0.32,0.08,0.45,0.13s0.26,0.09,0.38,0.14
		s0.26,0.13,0.4,0.22c0.28,0.19,0.43,0.49,0.43,0.89V40.02z"/>
</g>
</svg>
